<?xml version="1.0" standalone="no"?>
<!DOCTYPE svg PUBLIC "-//W3C//DTD SVG 20010904//EN"
 "http://www.w3.org/TR/2001/REC-SVG-20010904/DTD/svg10.dtd">
<svg version="1.0" xmlns="http://www.w3.org/2000/svg"
 width="2000.000000pt" height="2000.000000pt" viewBox="0 0 2000.000000 2000.000000"
 preserveAspectRatio="xMidYMid meet">
<metadata>
Created by potrace 1.14, written by Peter Selinger 2001-2017
</metadata>
<g transform="translate(0.000000,2000.000000) scale(0.100000,-0.100000)"
fill="#000000" stroke="none">
<path d="M9665 15402 c-52 -11 -107 -46 -144 -89 -68 -80 -71 -98 -71 -425 l0
-289 -32 6 c-18 3 -76 12 -128 20 -52 8 -104 17 -115 19 -11 2 -42 7 -70 10
-27 4 -117 18 -200 31 -82 13 -168 27 -190 30 -22 3 -47 7 -55 10 -8 2 -33 6
-55 9 -22 2 -69 9 -105 15 -36 6 -83 13 -105 16 -22 4 -92 15 -156 26 -173 29
-144 38 -310 -105 -20 -17 -56 -47 -80 -67 -74 -62 -732 -620 -764 -648 -17
-14 -59 -51 -95 -81 -36 -30 -67 -57 -70 -60 -3 -3 -30 -25 -60 -50 -30 -25
-57 -47 -60 -51 -3 -3 -162 -140 -355 -303 -192 -164 -372 -317 -400 -341 -46
-39 -203 -172 -321 -272 -27 -23 -59 -50 -72 -61 -13 -11 -107 -91 -209 -179
-103 -87 -268 -228 -368 -313 -99 -85 -205 -175 -234 -200 -245 -205 -263
-223 -156 -147 44 31 116 81 160 112 44 31 119 84 167 118 126 90 333 236 392
278 28 19 254 179 501 354 571 404 1185 838 1317 932 26 18 50 33 53 33 3 0 4
-820 3 -1822 l-3 -1822 -40 -7 c-22 -4 -121 -19 -220 -34 -99 -15 -191 -28
-205 -31 -14 -3 -41 -7 -60 -9 -19 -3 -46 -7 -60 -10 -14 -2 -45 -7 -70 -10
-25 -3 -70 -10 -100 -15 -30 -5 -73 -12 -95 -15 -167 -25 -808 -122 -855 -130
-14 -2 -86 -13 -160 -24 -207 -31 -214 -32 -230 -36 -8 -2 -42 -7 -75 -11 -33
-3 -69 -8 -80 -10 -10 -2 -37 -6 -60 -9 -96 -14 -168 -25 -199 -31 -10 -2 -44
-6 -75 -10 -31 -3 -58 -8 -60 -10 -2 -2 1338 -4 2978 -4 l2982 0 82 -85 c67
-68 98 -92 162 -122 l80 -38 260 0 260 0 75 37 c86 43 150 93 205 161 l38 47
1231 0 1231 0 59 -66 c71 -79 156 -137 241 -163 52 -16 96 -20 266 -21 112 0
228 4 257 9 95 19 160 57 255 152 l87 88 235 3 235 3 27 28 28 27 0 446 0 445
-50 47 c-61 57 -101 92 -227 201 -54 46 -98 87 -99 90 0 3 -2 128 -3 276 -1
260 -2 272 -25 318 -27 56 -81 103 -136 118 -22 6 -97 12 -168 12 l-127 0 -47
56 c-84 100 -172 172 -275 226 l-38 20 -1 95 c-1 161 -21 265 -74 385 -83 188
-262 355 -454 423 -36 13 -75 25 -86 28 -11 2 -31 6 -45 9 -39 8 -92 13 -187
20 -48 3 -104 8 -123 10 -19 2 -78 7 -130 11 -52 3 -111 7 -130 9 -19 2 -75 6
-125 10 -49 4 -106 8 -125 10 -19 2 -73 6 -120 10 -144 11 -161 13 -165 17 -2
2 -22 77 -45 168 -22 91 -46 182 -51 204 -22 83 -206 213 -426 301 l-42 17 -3
451 -3 452 -27 50 c-50 95 -131 147 -238 153 -114 7 -218 -57 -270 -164 -23
-49 -24 -52 -25 -411 0 -199 -3 -364 -5 -366 -3 -2 -45 4 -95 15 -49 10 -106
20 -125 22 -19 3 -49 7 -65 11 l-31 7 1 155 c0 151 -3 176 -21 173 -12 -2 -63
5 -279 40 -99 16 -268 43 -375 60 -107 18 -206 33 -220 36 -14 2 -43 6 -65 9
-22 3 -51 7 -65 10 -14 3 -83 14 -155 25 -71 12 -137 22 -145 25 -8 2 -40 7
-70 10 -30 3 -62 8 -70 11 -14 3 -15 45 -15 321 1 382 -6 423 -87 500 -53 51
-113 76 -182 78 -34 1 -70 0 -81 -3z m145 -121 c25 -12 56 -39 70 -59 l25 -37
3 -606 3 -607 97 -2 c193 -3 553 -22 692 -34 30 -3 84 -8 120 -11 36 -3 81 -8
100 -10 19 -2 71 -7 115 -10 44 -3 87 -8 95 -10 8 -2 42 -6 75 -10 73 -8 103
-12 225 -30 52 -8 113 -17 135 -21 66 -10 339 -65 347 -70 9 -6 9 -27 10 450
0 383 2 402 38 453 23 31 82 63 127 67 46 5 107 -19 140 -55 49 -54 50 -63 49
-556 l-1 -462 45 -17 c25 -9 64 -24 87 -35 24 -10 46 -19 49 -19 16 0 174 -97
230 -141 l62 -49 52 -217 c63 -264 56 -243 77 -244 10 -1 32 -3 48 -4 17 -2
68 -6 115 -9 47 -4 105 -8 130 -11 45 -4 118 -10 260 -21 41 -3 95 -7 120 -9
25 -3 83 -7 130 -10 47 -3 101 -8 120 -10 19 -2 73 -7 120 -10 236 -18 409
-108 544 -285 100 -131 138 -259 142 -475 1 -82 3 -153 3 -156 1 -4 29 -19 64
-34 121 -54 241 -156 306 -262 l30 -48 158 1 c171 2 194 -4 232 -52 20 -26 21
-38 21 -320 l0 -293 193 -168 192 -168 -1 -390 c0 -215 -3 -395 -6 -400 -4 -7
-746 -10 -2075 -10 l-2068 0 -2 360 c-3 422 0 365 -24 540 -56 399 -167 622
-358 717 -56 28 -73 32 -150 33 -75 0 -93 -4 -141 -28 -167 -86 -293 -314
-384 -697 -14 -58 -28 -118 -30 -135 -3 -16 -8 -41 -11 -55 -10 -51 -15 -86
-21 -145 -3 -33 -8 -62 -11 -65 -2 -2 -32 -5 -66 -6 -69 -1 -270 -12 -362 -19
-113 -9 -190 -14 -290 -20 -55 -3 -120 -8 -145 -10 -25 -3 -83 -7 -130 -10
-47 -3 -119 -8 -160 -10 -105 -8 -200 -14 -305 -20 -49 -3 -115 -8 -145 -10
-30 -2 -98 -7 -150 -11 -52 -3 -103 -8 -112 -10 -17 -3 -18 82 -18 1675 l0
1678 50 68 c69 96 173 210 254 280 37 33 74 65 81 72 67 64 380 221 400 201 3
-3 7 -117 20 -613 13 -509 16 -605 20 -780 3 -105 7 -273 10 -375 5 -193 12
-460 20 -761 2 -97 7 -288 11 -425 3 -137 7 -298 9 -359 2 -60 4 -126 4 -146
1 -25 6 -36 16 -36 8 0 16 3 16 6 1 3 2 1016 3 2251 l2 2245 26 40 c31 50 48
64 93 79 48 17 82 14 135 -13z m1436 -4094 c46 -24 111 -93 150 -160 19 -32
34 -62 34 -66 0 -4 7 -23 16 -41 9 -18 21 -49 26 -69 5 -20 13 -53 19 -74 5
-20 11 -52 14 -70 3 -17 9 -57 14 -87 16 -95 6 -344 -17 -451 -49 -227 -145
-394 -263 -454 -16 -9 -53 -18 -82 -21 l-52 -5 42 22 c203 102 331 498 289
894 -29 276 -143 517 -277 583 -30 15 -36 21 -22 24 24 5 71 -5 109 -25z m-86
-628 c48 -92 16 -259 -49 -259 -77 0 -97 232 -25 289 32 25 50 18 74 -30z"/>
<path d="M9624 13171 c1 -1039 4 -1892 8 -1896 3 -4 15 -4 25 -1 18 6 19 65
19 1896 l0 1890 -27 0 -26 0 1 -1889z"/>
<path d="M11992 14170 l-1 -400 28 0 27 0 0 400 0 400 -27 0 -26 0 -1 -400z"/>
<path d="M10801 13267 c-13 -6 -33 -24 -44 -39 -19 -25 -20 -44 -21 -323 -1
-163 1 -298 3 -300 2 -2 11 0 20 5 20 12 209 72 311 99 153 41 360 83 477 97
32 3 61 8 64 10 6 3 217 29 329 40 41 4 89 8 105 10 17 1 91 6 165 9 74 4 158
9 185 10 28 2 98 3 158 4 l107 1 0 158 0 158 -29 34 -29 35 -888 2 c-693 2
-894 0 -913 -10z"/>
<path d="M10144 13140 c-274 -85 -294 -93 -295 -118 -5 -89 -2 -589 4 -612 13
-50 35 -50 196 -3 80 23 205 59 276 79 72 20 136 44 143 52 9 12 12 94 12 332
0 294 -1 318 -18 333 -10 10 -29 17 -43 16 -13 0 -137 -36 -275 -79z"/>
<path d="M13275 12666 c-148 -35 -261 -146 -300 -296 -8 -33 -11 -255 -10
-830 1 -432 3 -792 3 -800 2 -13 88 -15 715 -15 l712 0 1 766 c0 825 -1 849
-51 935 -39 66 -110 131 -179 163 -73 35 -102 39 -341 56 -38 3 -101 7 -140
10 -320 23 -354 24 -410 11z m171 -127 c8 -13 7 -1717 -1 -1730 -9 -13 -41
-11 -54 4 -11 15 -17 1690 -5 1721 7 18 49 22 60 5z m255 -6 c5 -76 3 -1684
-1 -1703 -4 -14 -14 -26 -24 -28 -44 -9 -43 -28 -44 856 -1 460 1 849 4 865 5
22 11 27 35 27 21 0 29 -5 30 -17z m-506 -33 c5 -8 9 -1399 5 -1635 -1 -54
-12 -69 -44 -61 l-26 6 0 844 c0 463 3 846 7 849 10 11 51 8 58 -3z m758 -2
c2 -7 4 -387 3 -845 -1 -610 -4 -835 -12 -843 -20 -20 -48 -7 -54 25 -8 46 -5
1649 4 1663 10 16 53 16 59 0z m243 -69 c14 -11 16 -1585 2 -1611 -5 -10 -17
-18 -28 -18 -11 0 -23 8 -28 18 -10 20 -10 1592 0 1608 9 13 39 15 54 3z"/>
<path d="M12060 11480 c-12 -12 -15 -49 -14 -207 0 -126 5 -197 12 -206 17
-20 709 -18 721 2 5 7 9 100 9 206 0 156 -2 196 -14 206 -10 8 -110 12 -356
13 -293 1 -345 -1 -358 -14z"/>
<path d="M10750 11459 c-30 -11 -253 -82 -495 -158 l-440 -139 0 -233 c-1
-129 1 -239 2 -244 5 -14 548 -14 561 0 6 6 17 37 26 70 46 164 143 389 223
513 41 65 114 145 167 184 45 32 33 35 -44 7z"/>
<path d="M14635 11432 c-27 -2 -54 -7 -59 -13 -15 -14 -14 -388 1 -408 10 -14
52 -16 352 -16 188 0 350 3 360 6 17 7 18 22 19 213 0 201 -1 205 -22 212 -21
7 -556 12 -651 6z"/>
<path d="M11954 10522 c-12 -2 -30 -12 -40 -23 -16 -18 -18 -42 -18 -227 -1
-198 0 -208 21 -232 l21 -25 1804 -1 c991 0 1813 3 1825 7 12 5 27 17 33 29 9
16 15 243 11 412 -1 18 -10 33 -27 44 -24 16 -154 17 -1817 18 -986 1 -1802 0
-1813 -2z"/>
<path d="M11948 8635 c-2 -2 -39 -5 -83 -8 -293 -20 -569 -138 -741 -318 -140
-148 -206 -330 -199 -554 7 -225 88 -380 271 -516 114 -84 282 -148 563 -215
397 -94 491 -124 571 -179 48 -34 74 -89 68 -149 -13 -130 -135 -189 -393
-190 -167 -1 -272 11 -399 45 -23 6 -48 13 -56 14 -27 6 -144 46 -175 60 -16
7 -52 23 -80 35 -27 12 -75 37 -106 56 -31 19 -61 34 -66 34 -5 0 -25 -35 -43
-77 -19 -43 -48 -109 -66 -148 -17 -38 -55 -124 -84 -189 l-52 -119 23 -19
c64 -49 359 -172 461 -192 13 -2 46 -10 73 -16 85 -20 199 -38 286 -47 107
-10 450 -10 509 0 199 35 288 60 409 114 93 42 217 131 289 208 162 173 231
425 182 664 -21 105 -49 168 -105 241 -97 127 -239 222 -415 279 -100 33 -298
85 -480 126 -369 85 -464 140 -456 266 9 125 114 198 310 216 179 16 324 0
512 -58 78 -24 102 -33 229 -94 56 -26 91 -38 94 -31 8 22 122 301 131 321 32
67 87 211 83 217 -9 15 -180 90 -278 123 -133 44 -238 67 -355 80 -30 3 -63 9
-74 12 -19 5 -353 13 -358 8z"/>
<path d="M7062 8580 c-4 -3 -8 -589 -8 -1302 l1 -1298 367 0 368 0 0 1303 0
1303 -360 0 c-198 0 -364 -2 -368 -6z"/>
<path d="M8322 8575 c-4 -5 -7 -592 -7 -1303 l0 -1292 366 0 365 0 0 322 -1
322 26 33 c15 18 56 63 92 100 36 38 86 91 112 118 l47 50 26 -34 c15 -19 171
-218 347 -441 176 -224 331 -421 344 -439 l24 -31 429 0 429 0 -28 37 c-15 21
-34 44 -40 53 -7 8 -186 240 -398 515 -213 275 -392 507 -398 515 -11 13 -71
92 -181 235 -17 22 -33 42 -36 45 -34 34 -40 48 -28 61 7 8 58 64 113 124 55
61 107 117 115 125 8 8 38 40 65 70 28 30 100 109 161 175 61 66 124 134 139
150 15 17 70 77 123 134 54 57 105 113 115 125 10 12 60 65 110 120 51 54 95
104 99 110 5 8 -98 11 -396 11 l-401 0 -55 -59 c-30 -32 -68 -73 -85 -91 -52
-55 -259 -277 -285 -305 -41 -43 -236 -253 -266 -285 -15 -16 -78 -84 -140
-150 -62 -66 -126 -136 -143 -155 -30 -35 -31 -35 -32 -10 -1 14 -2 257 -3
540 l-1 515 -358 0 c-234 0 -361 -3 -365 -10z"/>
<path d="M8605 5325 c-59 -58 -4 -144 82 -129 65 12 93 96 44 135 -34 28 -96
25 -126 -6z"/>
<path d="M11916 5327 c-58 -58 -12 -140 74 -131 47 6 74 35 74 79 0 46 -21 66
-77 72 -39 5 -49 2 -71 -20z"/>
<path d="M8314 5195 c1 -107 -3 -130 -19 -105 -4 6 -23 17 -43 26 -55 24 -158
14 -216 -20 -163 -95 -153 -367 18 -447 71 -34 170 -32 226 5 l40 26 0 -25 c0
-24 2 -25 68 -25 l69 0 0 340 0 340 -72 0 -72 0 1 -115z m-46 -210 c57 -48 61
-157 8 -210 -18 -18 -60 -35 -88 -35 -62 0 -126 68 -122 130 1 14 2 36 3 49 0
12 16 38 35 57 30 30 40 34 84 34 39 0 57 -6 80 -25z"/>
<path d="M6517 5284 c-1 -1 -19 -5 -40 -8 -47 -7 -116 -42 -141 -70 -45 -51
-60 -141 -31 -195 31 -61 60 -75 267 -135 88 -26 109 -58 69 -107 -18 -22 -27
-24 -108 -24 -75 0 -97 4 -147 28 -32 15 -60 26 -61 25 -16 -19 -45 -93 -41
-104 6 -15 76 -49 124 -60 56 -13 207 -12 252 2 150 45 200 215 91 307 -29 24
-119 58 -189 71 -19 3 -54 15 -78 25 -37 17 -44 24 -44 48 0 15 4 33 8 39 27
41 134 48 227 15 32 -12 60 -21 61 -21 2 0 44 98 44 104 0 10 -54 33 -106 45
-44 11 -151 21 -157 15z"/>
<path d="M9913 5274 c-120 -24 -183 -93 -183 -197 0 -48 27 -96 71 -130 15
-10 79 -34 143 -52 123 -35 156 -54 156 -90 0 -44 -34 -60 -129 -60 -73 0 -95
4 -145 28 -32 15 -59 27 -60 27 -2 0 -13 -23 -26 -50 -29 -61 -23 -69 65 -102
75 -27 223 -34 290 -13 93 27 154 102 155 188 0 79 -54 136 -158 166 -63 18
-112 30 -129 32 -5 1 -25 10 -45 20 -30 15 -38 25 -38 47 0 15 4 32 8 38 29
44 150 49 244 9 48 -20 46 -20 62 18 31 76 31 76 -16 97 -40 18 -83 26 -168
34 -19 2 -63 -3 -97 -10z"/>
<path d="M6940 5232 c-6 -2 -10 -30 -10 -63 0 -42 -4 -59 -12 -58 -7 1 -25 1
-40 0 -27 -1 -28 -3 -28 -55 0 -51 1 -53 28 -54 15 0 33 0 40 -1 9 -1 12 -33
12 -125 0 -130 10 -175 49 -210 46 -42 152 -55 221 -26 16 7 30 14 30 15 0 2
-9 24 -19 48 -19 45 -20 45 -61 40 -30 -4 -45 -1 -60 12 -17 15 -19 31 -19
131 1 99 3 114 17 115 10 1 37 2 62 3 l45 1 0 52 c1 29 -4 54 -10 56 -5 1 -33
2 -62 2 l-52 -2 0 54 c1 30 -2 57 -5 60 -7 7 -109 10 -126 5z"/>
<path d="M7315 5120 c-2 -3 -2 -84 -1 -180 2 -166 3 -177 26 -218 49 -87 172
-123 273 -80 26 11 47 24 47 29 0 5 5 9 10 9 6 0 10 -11 10 -25 0 -26 1 -26
67 -23 l67 3 1 245 0 244 -70 1 -70 0 -5 -158 -5 -159 -33 -29 c-25 -23 -42
-29 -76 -29 -83 0 -98 33 -100 224 l-1 150 -68 1 c-38 0 -70 -2 -72 -5z"/>
<path d="M8596 5120 c-1 -3 -2 -113 -2 -245 l1 -240 73 -3 72 -3 0 248 0 248
-71 0 c-39 0 -72 -2 -73 -5z"/>
<path d="M8993 5105 c-96 -45 -147 -125 -145 -231 0 -34 7 -77 15 -96 51 -121
201 -182 347 -140 174 50 235 280 108 412 -74 78 -223 103 -325 55z m188 -111
c37 -18 59 -67 59 -127 0 -35 -7 -51 -32 -81 -102 -117 -271 15 -203 158 29
61 111 84 176 50z"/>
<path d="M10493 5119 c-182 -53 -242 -292 -106 -421 78 -74 239 -97 337 -48
73 36 79 52 36 95 l-35 35 -40 -20 c-70 -36 -174 -19 -210 34 -29 41 -23 42
168 42 l182 0 -1 64 c-1 74 -17 113 -70 164 -60 58 -170 81 -261 55z m152
-119 c18 -11 38 -34 44 -50 l10 -30 -120 0 c-107 0 -119 2 -119 18 2 67 115
105 185 62z"/>
<path d="M10939 5120 c-1 -3 -3 -114 -4 -247 l-2 -243 72 0 72 0 0 139 c0 124
3 143 22 174 24 39 58 57 106 57 l35 0 0 65 c0 60 -2 65 -21 65 -38 0 -99 -23
-124 -46 l-25 -23 0 32 0 32 -65 0 c-36 1 -66 -2 -66 -5z"/>
<path d="M11286 5105 c4 -11 17 -42 29 -70 12 -27 56 -130 96 -227 l74 -178
75 0 75 0 97 233 c53 127 100 239 103 247 5 13 -5 16 -59 15 -36 0 -67 -3 -71
-6 -3 -4 -37 -80 -75 -170 -49 -116 -71 -158 -76 -144 -3 11 -33 87 -67 170
l-62 149 -73 1 c-68 1 -72 -1 -66 -20z"/>
<path d="M11912 5120 c-4 -3 -7 -113 -7 -245 l0 -240 73 -3 72 -3 -2 248 -3
247 -63 1 c-35 0 -66 -2 -70 -5z"/>
<path d="M12305 5105 c-98 -44 -156 -141 -149 -247 10 -138 117 -231 269 -232
85 0 129 14 176 57 57 51 56 62 -7 96 -52 28 -55 28 -67 10 -34 -48 -111 -62
-164 -29 -104 63 -72 238 47 251 43 5 89 -11 110 -38 l20 -26 55 29 c30 15 55
32 55 36 0 20 -66 78 -110 97 -68 29 -166 27 -235 -4z"/>
<path d="M12880 5121 c-113 -35 -179 -122 -181 -242 -4 -154 119 -261 291
-254 69 3 146 29 176 60 15 15 15 18 -2 37 -38 45 -64 69 -64 60 0 -16 -71
-42 -116 -42 -64 0 -120 33 -136 81 -5 13 15 15 166 14 94 0 179 1 188 3 13 3
16 14 13 56 -9 141 -111 237 -250 235 -33 0 -71 -4 -85 -8z m172 -140 c50 -56
43 -61 -93 -61 -120 0 -120 0 -114 23 4 12 21 35 38 50 29 26 38 28 86 24 46
-3 59 -9 83 -36z"/>
<path d="M13425 5121 c-68 -17 -120 -58 -131 -105 -11 -44 -11 -47 -1 -85 15
-57 66 -89 172 -106 99 -16 115 -23 115 -48 0 -33 -30 -46 -96 -42 -67 4 -94
9 -123 24 -34 19 -45 12 -67 -38 l-22 -49 42 -16 c68 -25 120 -34 196 -30 136
5 216 71 207 168 -7 76 -53 110 -177 131 -109 18 -141 43 -100 77 28 22 117
23 175 3 22 -8 41 -15 42 -15 1 0 11 21 23 47 19 44 20 49 4 60 -38 28 -185
42 -259 24z"/>
</g>
</svg>
